<?xml version="1.0" encoding="UTF-8" standalone="no"?>
<svg width="148px" height="148px" viewBox="0 0 148 148" version="1.1" xmlns="http://www.w3.org/2000/svg" xmlns:xlink="http://www.w3.org/1999/xlink" xmlns:sketch="http://www.bohemiancoding.com/sketch/ns">
    <title>logo</title>
    <description>Created with Sketch (http://www.bohemiancoding.com/sketch)</description>
    <defs>
        <path d="M302.720371,175.917114 C313.0213,198.950512 336.13637,215 363,215 C394.112151,215 420.196302,193.472587 427.169573,164.500635 C426.578194,164.867639 425.945572,165.244805 425.271702,165.632138 C423.930095,166.40328 422.50959,167.111108 421.010147,167.755644 C419.510703,168.40018 417.949275,168.935368 416.325817,169.361222 C414.702359,169.787076 413.101474,170 411.523112,170 C410.17023,170 408.969566,169.735284 407.921082,169.205843 C406.872599,168.676403 405.981965,167.96282 405.249154,167.065073 C404.712359,166.407459 404.269333,165.675744 403.920071,164.869915 C395.566972,168.262189 393.955184,169.037877 392.589808,169.446809 C392.010579,169.631207 391.481484,169.769503 391.002506,169.861702 C390.523529,169.953901 390.083544,170 389.68254,170 C388.501804,170 387.638544,169.660021 387.092732,168.980053 C386.54692,168.300085 386.274018,167.349297 386.274018,166.12766 C386.274018,165.966311 386.279588,165.810728 386.290727,165.660904 C386.301866,165.511081 386.318574,165.343973 386.340852,165.159574 C386.385408,164.445032 386.569199,163.661352 386.892231,162.808511 C387.215262,161.955669 387.605122,161.079792 388.061821,160.180851 C388.518521,159.28191 389.003061,158.388746 389.515455,157.50133 C390.02785,156.613914 390.501251,155.77261 390.935673,154.977394 C391.370094,154.182177 391.732107,153.473407 392.021721,152.851064 C392.311335,152.22872 392.45614,151.721633 392.45614,151.329787 C392.45614,150.984041 392.36146,150.690161 392.172097,150.448138 C391.982734,150.206116 391.698693,150.085106 391.319967,150.085106 C389.894173,150.085106 388.540803,150.523045 387.259816,151.398936 C385.97883,152.274827 384.781404,153.352387 383.667502,154.631649 C382.553601,155.910911 381.528827,157.265064 380.59315,158.694149 C379.657472,160.123234 378.833198,161.402477 378.120301,162.531915 C377.67474,163.292557 377.268172,164.105049 376.900585,164.969415 C376.532997,165.833781 376.148707,166.64051 375.747703,167.389628 C375.346698,168.138745 374.895575,168.761079 374.394319,169.256649 C373.893063,169.752219 373.263719,170 372.506266,170 C371.726535,170 371.113898,169.746456 370.668338,169.239362 C370.222777,168.732267 370,168.109933 370,167.37234 C370,167.001296 370.139827,166.413251 370.419484,165.608191 L370.419484,165.608191 C369.075726,168.25108 367.169819,168.96595 366.226087,169.360372 C365.205792,169.786793 364.243483,170 363.33913,170 C362.527532,170 361.831887,169.827129 361.252174,169.481383 C360.672461,169.135637 360.191306,168.686173 359.808696,168.132979 C359.426085,167.579784 359.14203,166.951688 358.956522,166.24867 C358.771014,165.545653 358.678261,164.825358 358.678261,164.087766 C358.678261,163.603721 358.713043,163.125446 358.782609,162.652926 C358.852174,162.180405 358.968115,161.736704 359.130435,161.321809 C358.411591,162.289898 357.594207,163.286786 356.678261,164.3125 C355.762314,165.338214 354.776817,166.271716 353.721739,167.113032 C352.666661,167.954348 351.565223,168.645831 350.417391,169.1875 C349.269559,169.729169 348.104354,170 346.921739,170 C346.318838,170 345.617395,169.878991 344.817391,169.636968 C344.017387,169.394946 343.257975,168.997343 342.53913,168.444149 C341.820286,167.890955 341.217394,167.176423 340.730435,166.300532 C340.243476,165.424641 340,164.352843 340,163.085106 C340,162.140066 340.144926,161.010645 340.434783,159.696809 C340.724639,158.382972 341.165214,157.017294 341.756522,155.599734 C342.347829,154.182174 343.101445,152.781922 344.017391,151.398936 C344.933338,150.015951 346.017385,148.777044 347.269565,147.682181 C348.521745,146.587317 349.947818,145.699915 351.547826,145.019947 C353.147834,144.339979 354.933323,144 356.904348,144 C357.924643,144 358.817387,144.126772 359.582609,144.380319 C360.34783,144.633867 360.997099,144.910459 361.530435,145.210106 C362.133336,145.578903 362.666664,145.982267 363.130435,146.420213 C363.52464,146.212765 363.930433,146.016845 364.347826,145.832447 C364.695654,145.671098 365.060868,145.52704 365.443478,145.400266 C365.826089,145.273492 366.15652,145.210106 366.434783,145.210106 C367.315946,145.210106 368.03478,145.452125 368.591304,145.93617 C369.147829,146.420215 369.426087,146.950352 369.426087,147.526596 C369.426087,147.687944 369.414493,147.814716 369.391304,147.906915 C369.275362,148.34486 369.095653,148.898046 368.852174,149.566489 C368.608694,150.234932 368.336233,150.978276 368.034783,151.796543 C367.733332,152.614809 367.426089,153.467637 367.113043,154.355053 C366.799998,155.242469 366.515943,156.112584 366.26087,156.965426 C366.005796,157.818267 365.797102,158.619234 365.634783,159.368351 C365.472463,160.117468 365.391304,160.75709 365.391304,161.287234 C365.391304,161.978727 365.507245,162.5492 365.73913,162.99867 C365.971016,163.448141 366.365215,163.672872 366.921739,163.672872 C367.245259,163.672872 370.898319,163.052954 373.952719,157.357456 C374.356114,156.489957 374.759509,155.627458 375.162907,154.769947 C375.775553,153.467635 376.360343,152.240254 376.917293,151.087766 C377.474244,149.935278 377.930937,148.955678 378.287385,148.148936 C378.732946,147.157796 379.289888,146.420215 379.958229,145.93617 C380.62657,145.452125 381.283762,145.210106 381.929825,145.210106 C382.464497,145.210106 382.943468,145.411789 383.36675,145.81516 C383.790033,146.21853 384.001671,146.812053 384.001671,147.595745 C384.001671,147.895392 383.968254,148.218083 383.90142,148.56383 C383.834586,148.909576 383.712059,149.278367 383.533835,149.670213 C384.023951,149.024819 384.725699,148.362149 385.639098,147.682181 C386.552497,147.002213 387.560563,146.391403 388.663325,145.849734 C389.766087,145.308065 390.90225,144.864363 392.071846,144.518617 C393.241443,144.172871 394.349758,144 395.396825,144 C396.577561,144 397.563349,144.29388 398.354219,144.881649 C399.145089,145.469418 399.540518,146.466305 399.540518,147.87234 C399.540518,148.702132 399.417991,149.566485 399.172932,150.465426 C398.927874,151.364366 398.610417,152.263293 398.220551,153.162234 C397.830686,154.061175 397.396271,154.942815 396.917293,155.807181 C396.438316,156.671547 395.964915,157.484039 395.497076,158.244681 C395.029237,159.005323 394.600392,159.702568 394.210526,160.336436 C393.820661,160.970305 393.514343,161.494679 393.291562,161.909574 C393.001948,162.278371 392.857143,162.704785 392.857143,163.18883 C392.857143,163.373228 392.912837,163.534574 393.024227,163.672872 C393.135617,163.811171 393.313839,163.880319 393.558897,163.880319 C393.714843,163.880319 393.893065,163.863032 394.093567,163.828457 C394.224278,163.805918 398.397837,162.26466 403.004501,160.603761 L403.004501,160.603761 C403.0015,160.490607 403,160.377003 403,160.262948 C403,159.273125 403.191655,158.185486 403.574972,157 C403.958288,155.814514 404.510707,154.623291 405.232244,153.426295 C405.95378,152.229299 406.838777,151.061095 407.88726,149.921647 C408.935744,148.782199 410.11386,147.775126 411.421646,146.900398 C412.729432,146.025671 414.166847,145.323597 415.733935,144.794157 C417.301022,144.264716 418.975188,144 420.756483,144 C422.627969,144 424.025925,144.460376 424.950395,145.381142 C425.874864,146.301908 426.337091,147.579452 426.337091,149.213811 C426.337091,150.180616 426.089067,151.193443 425.59301,152.252324 C425.096954,153.311205 424.240141,154.387334 423.022548,155.480744 C421.804954,156.574153 420.175884,157.690565 418.135287,158.830013 C416.094691,159.969461 413.541165,161.114647 410.474634,162.265604 C410.587374,162.93316 410.936863,163.456837 411.523112,163.836653 C412.10936,164.216469 412.887256,164.406375 413.856821,164.406375 C414.89403,164.406375 416.004504,164.250998 417.188275,163.940239 C418.372047,163.629481 419.544526,163.232406 420.70575,162.749004 C421.866973,162.265602 422.999994,161.741924 424.104848,161.177955 C425.209701,160.613986 426.207436,160.078798 427.098083,159.572377 C427.686543,159.237779 428.083492,158.954354 428.353591,158.273656 C428.77967,155.24362 429,152.14754 429,149 C429,112.549205 399.450795,83 363,83 C326.549205,83 297,112.549205 297,149 C297,155.041812 297.811832,160.894011 299.332362,166.453462 C299.648564,167.02361 300.083753,167.609079 300.686035,168.11657 C302.068115,169.281128 302.823319,169.248535 303.245361,169.248535 C304.042552,169.248535 304.835869,168.877105 305.726846,168.116568 C306.617824,167.356032 307.520511,166.317405 308.434936,165.000655 C309.34936,163.683905 310.275494,162.145828 311.213365,160.386379 C312.151236,158.626929 313.071508,156.748318 313.974209,154.750491 C314.87691,152.752664 315.750289,150.68676 316.594373,148.552718 C317.438457,146.418675 318.241497,144.330069 319.003517,142.286837 C319.765537,140.243605 320.46893,138.291212 321.113716,136.429601 C321.758503,134.567989 322.321217,132.90505 322.801876,131.440733 C323.282535,129.976417 323.675262,128.767523 323.98007,127.814014 C324.284878,126.860506 324.47245,126.258897 324.54279,126.009168 C324.753811,125.305388 325.123092,124.794588 325.650645,124.476752 C326.178197,124.158916 326.746773,124 327.356389,124 C328.247367,124 328.927313,124.266751 329.396249,124.800262 C329.865184,125.333773 330.099648,126.304293 330.099648,127.711853 C330.099648,127.938879 330.093787,128.177253 330.082063,128.426981 C330.07034,128.676709 330.052755,128.937785 330.029308,129.210216 C329.958968,129.868591 329.800705,130.782356 329.554513,131.951539 C329.308322,133.120722 328.974211,134.46583 328.552169,135.986902 C328.130127,137.507975 327.626029,139.17659 327.039859,140.992796 C326.45369,142.809003 325.79719,144.693289 325.07034,146.645711 C328.423229,143.875996 331.395063,141.458207 333.985932,139.392272 C336.576801,137.326338 338.851104,135.549887 340.80891,134.062868 C342.766716,132.575849 344.437273,131.349928 345.820633,130.385069 C347.203993,129.420209 348.370452,128.659684 349.320047,128.103471 C350.269641,127.547258 351.025789,127.155644 351.588511,126.928618 C352.151234,126.701592 352.596716,126.588081 352.924971,126.588081 C353.276672,126.588081 353.581476,126.67889 353.83939,126.860511 C354.097305,127.042131 354.314184,127.257803 354.490035,127.507531 C354.665886,127.757259 354.794841,128.01266 354.876905,128.273739 C354.958969,128.534819 355,128.744815 355,128.903733 C355,129.289677 354.900353,129.658588 354.701055,130.010478 C354.501758,130.362368 354.202816,130.663173 353.80422,130.912901 C352.162946,132.025328 350.439634,133.251248 348.634232,134.590701 C346.82883,135.930153 345.017594,137.309314 343.200469,138.728225 C341.383344,140.147137 339.595554,141.571702 337.837046,143.001965 C336.078538,144.432227 334.419703,145.78301 332.860492,147.054355 C331.301282,148.325699 329.882773,149.472163 328.604924,150.493779 C327.327075,151.515395 326.254401,152.344027 325.38687,152.979699 C326.629549,154.591582 327.831178,156.123983 328.991794,157.576948 C330.152409,159.029913 331.266114,160.443128 332.332943,161.816634 C333.399771,163.19014 334.431414,164.535248 335.427902,165.851997 C336.42439,167.168747 337.368108,168.496828 338.259086,169.83628 C338.563894,170.290332 338.780773,170.738701 338.90973,171.181401 C339.038688,171.624102 339.103165,172.027067 339.103165,172.390308 C339.103165,173.003277 338.962487,173.53678 338.681125,173.990832 C338.399764,174.444883 338.065653,174.81947 337.678781,175.114604 C337.291909,175.409737 336.89332,175.631084 336.483001,175.778651 C336.072683,175.926218 335.726848,176 335.445487,176 C334.671743,176 333.939042,175.733249 333.247362,175.199738 C332.555682,174.666227 331.96366,173.990836 331.471278,173.173543 C330.744428,172.242737 330.140682,171.448159 329.660023,170.789784 C329.179365,170.131409 328.739744,169.512773 328.341149,168.933857 C327.942554,168.354941 327.549826,167.759008 327.162954,167.146038 C326.776082,166.533068 326.295431,165.78957 325.720985,164.915521 C325.146539,164.041471 324.437284,162.991493 323.5932,161.765553 C322.749117,160.539614 321.694027,159.018564 320.427902,157.202358 C319.185222,159.699641 317.854638,162.083377 316.436108,164.353635 C315.017578,166.623893 313.522868,168.62169 311.951934,170.347086 C310.381,172.072482 308.739751,173.440292 307.028136,174.450557 C305.623775,175.279468 304.187863,175.768318 302.720371,175.917114 Z M439,148 C439,107.130927 405.869073,74 365,74 C324.130927,74 291,107.130927 291,148 C291,188.869073 324.130927,222 365,222 C405.869073,222 439,188.869073 439,148 Z M355.295082,150 C354.096533,150 352.936253,150.283541 351.814208,150.850633 C350.692162,151.417724 349.697636,152.162021 348.830601,153.083544 C347.963566,154.005068 347.275048,155.038813 346.765027,156.18481 C346.255007,157.330807 346,158.482695 346,159.640506 C346,160.113083 346.031876,160.603373 346.095628,161.111392 C346.159381,161.619412 346.30601,162.086074 346.535519,162.511392 C346.765028,162.936711 347.090162,163.291138 347.510929,163.574684 C347.931696,163.858229 348.499086,164 349.213115,164 C349.774138,164 350.430779,163.769623 351.18306,163.308861 C351.935341,162.848099 352.713111,162.257388 353.516393,161.536709 C354.319676,160.81603 355.103821,160.024477 355.868852,159.162025 C356.633884,158.299574 357.322401,157.454856 357.934426,156.627848 C358.546451,155.80084 359.043714,155.056543 359.42623,154.394937 C359.808745,153.73333 360,153.248947 360,152.941772 C360,152.492825 359.834246,152.085234 359.502732,151.718987 C359.171219,151.352741 358.763208,151.039664 358.278689,150.779747 C357.794169,150.51983 357.277781,150.324895 356.729508,150.194937 C356.181236,150.064978 355.703099,150 355.295082,150 Z M421.726115,148 L421.43949,148 C420.632692,148 419.552246,148.108264 416.898682,149.299639 C414.245117,150.491013 411.157227,154.054688 410.797363,157.937988 C416.917969,154.971191 422.097663,151.423589 422.458599,150.833935 C422.819535,150.244281 423,149.732854 423,149.299639 C423,148.938626 422.899152,148.649821 422.697452,148.433213 C422.495753,148.216605 422.267517,148.084236 422.012739,148.036101 C421.906581,148.012034 421.811041,148 421.726115,148 Z" id="path-1"></path>
    </defs>
    <g id="Page-1" stroke="none" stroke-width="1" fill="none" fill-rule="evenodd" sketch:type="MSPage">
        <g id="logo" sketch:type="MSArtboardGroup" transform="translate(-291.000000, -74.000000)">
            <g>
                <use fill="#FFFFFF" fill-rule="evenodd" sketch:type="MSShapeGroup" xlink:href="#path-1"></use>
                <use fill="none" xlink:href="#path-1"></use>
                <use fill="none" xlink:href="#path-1"></use>
            </g>
        </g>
    </g>
</svg>