<?xml version="1.0" encoding="UTF-8" standalone="no"?>
<svg width="42px" height="42px" viewBox="0 0 42 42" version="1.1" xmlns="http://www.w3.org/2000/svg" xmlns:xlink="http://www.w3.org/1999/xlink" xmlns:sketch="http://www.bohemiancoding.com/sketch/ns">
    <title>twitter_btn</title>
    <description>Created with Sketch (http://www.bohemiancoding.com/sketch)</description>
    <defs></defs>
    <g id="Page-1" stroke="none" stroke-width="1" fill="none" fill-rule="evenodd" sketch:type="MSPage">
        <g id="twitter_btn" sketch:type="MSArtboardGroup" transform="translate(-394.000000, -458.000000)">
            <g id="Oval-1-+-CV-copy-2" sketch:type="MSLayerGroup" transform="translate(395.000000, 459.000000)">
                <circle id="Oval-1" stroke="#FF4136" sketch:type="MSShapeGroup" cx="20" cy="20" r="20"></circle>
                <path d="M14.177002,26.0356445 L21.269043,15.1252441 C21.269043,15.1252441 21.9580078,13.5983878 24.3588867,13.5983887 C26.7597656,13.5983895 27.9418944,15.135498 27.9418945,17.7246094 C27.9418945,20.3137207 25.5205078,26.0356445 20.4030762,26.0356445 L14.177002,26.0356445 Z" id="Path-19" stroke="#FF4136" sketch:type="MSShapeGroup"></path>
                <path d="M16.177002,26.0356445 L20.7211914,19.0056152 L16.177002,26.0356445 Z" id="Path" stroke="#FF4136" fill="#D8D8D8" sketch:type="MSShapeGroup"></path>
                <path d="M18.177002,26.0356445 L20.4490967,22.5206299 L18.177002,26.0356445 Z" id="Path-copy" stroke="#FF4136" fill="#D8D8D8" sketch:type="MSShapeGroup"></path>
                <path d="M27.901123,16.9177246 L30.8110352,17.8098145 L27.878418,19.1281738" id="Path-20" stroke="#FF4136" sketch:type="MSShapeGroup"></path>
                <circle id="Oval-4" fill="#FF4136" sketch:type="MSShapeGroup" cx="25" cy="17" r="1"></circle>
                <path d="M18.9438477,18.7573242 L10.3080607,18.7573242 C10.3080607,18.7573242 11.4182128,23.5227052 15.8198242,23.5227051" id="Path-23" stroke="#FF4136" sketch:type="MSShapeGroup"></path>
            </g>
        </g>
    </g>
</svg>